<?xml version="1.0" standalone="no"?>
<!DOCTYPE svg PUBLIC "-//W3C//DTD SVG 20010904//EN"
 "http://www.w3.org/TR/2001/REC-SVG-20010904/DTD/svg10.dtd">
<svg version="1.0" xmlns="http://www.w3.org/2000/svg"
 width="497.000000pt" height="612.000000pt" viewBox="0 0 497.000000 612.000000"
 preserveAspectRatio="xMidYMid meet">

<g transform="translate(0.000000,612.000000) scale(0.100000,-0.100000)"
fill="#000000" stroke="none">
<path d="M838 5764 c-15 -8 -32 -23 -38 -34 -15 -28 -12 -82 5 -107 21 -30
233 -163 260 -163 68 0 115 43 115 105 0 54 -12 68 -107 128 -150 94 -178 102
-235 71z"/>
<path d="M3980 5744 c-179 -100 -217 -144 -186 -217 16 -39 59 -67 104 -67 31
0 222 114 260 156 34 39 30 88 -12 130 -45 45 -82 45 -166 -2z"/>
<path d="M2950 5108 c11 -18 40 -73 66 -123 54 -105 53 -103 63 -86 7 10 10 9
16 -8 10 -32 28 -26 20 7 -12 49 -73 146 -117 188 -60 56 -72 61 -48 22z"/>
<path d="M1969 5093 c-45 -48 -89 -122 -109 -183 -23 -68 -24 -82 -7 -59 7 8
20 18 30 22 9 3 17 16 17 27 0 11 6 23 14 26 13 5 60 96 61 119 1 6 7 20 14
33 20 37 8 46 -20 15z"/>
<path d="M3640 3691 c-12 -8 -8 -16 22 -45 21 -20 47 -36 60 -36 13 0 18 3 12
8 -7 4 -21 23 -31 42 -21 37 -39 46 -63 31z"/>
<path d="M1261 3654 c-25 -42 -25 -44 -4 -44 18 0 84 66 75 75 -17 17 -52 2
-71 -31z"/>
<path d="M950 3662 c0 -26 34 -54 59 -50 18 3 15 7 -19 36 -34 28 -40 30 -40
14z"/>
<path d="M3972 3644 c-28 -28 -31 -34 -15 -34 28 0 63 28 63 51 0 26 -9 22
-48 -17z"/>
<path d="M1858 2633 l-3 -78 -213 -2 c-118 -2 -218 -6 -223 -9 -17 -10 -24 5
-29 69 l-6 62 -8 -47 c-21 -120 1 -130 294 -135 134 -3 220 -1 212 5 -9 6 -12
35 -10 103 l3 94 55 6 55 6 -62 1 -62 2 -3 -77z"/>
<path d="M3045 2701 l50 -6 6 -45 6 -45 1 53 2 52 -57 -2 -58 -1 50 -6z"/>
<path d="M3578 2620 c-4 -30 -8 -59 -9 -65 -3 -12 -437 -4 -455 7 -8 6 -13 -5
-16 -33 l-4 -41 211 4 c282 6 290 9 283 129 l-3 54 -7 -55z"/>
</g>
</svg>
